# xmcd CD database file
#
# Track frame offsets:
#	150
#	13240
#	26832
#	42122
#	52037
#	65980
#	81402
#	96447
#	109507
#	123660
#
# Disc length: 1840 seconds
#
# Revision: 4
# Processed by: cddbd v1.5.2PL0 Copyright (c) Steve Scherf et al.
# Submitted via: CDex 1.79
#
DISCID=91072e0a
DTITLE=Tim McGraw - Tim McGraw
DYEAR=1993
DGENRE=Country
TTITLE0=Welcome To The Club
TTITLE1=Two Steppin' Mind
TTITLE2=The Only Thing I Have Left
TTITLE3=You Can't Take It With You
TTITLE4=Ain't No Angels
TTITLE5=Memory Lane
TTITLE6=Tears In The Rain
TTITLE7=What She Left Behind
TTITLE8=What Room Was The Holiday In
TTITLE9=I Keep It Under My Hat
EXTD=YEAR: 1993
EXTT0=
EXTT1=
EXTT2=
EXTT3=
EXTT4=
EXTT5=
EXTT6=
EXTT7=
EXTT8=
EXTT9=
PLAYORDER=
